<svg xmlns="http://www.w3.org/2000/svg" xmlns:xlink="http://www.w3.org/1999/xlink" width="1280" zoomAndPan="magnify" viewBox="0 0 960 540.000001" height="720" preserveAspectRatio="xMidYMid meet" version="1.0"><defs><g/><clipPath id="8e508309eb"><path d="M 0.886719 0 L 959.113281 0 L 959.113281 539 L 0.886719 539 Z M 0.886719 0 " clip-rule="nonzero"/></clipPath></defs><g clip-path="url(#8e508309eb)"><path fill="#ffffff" d="M 0.886719 0 L 959.113281 0 L 959.113281 539 L 0.886719 539 Z M 0.886719 0 " fill-opacity="1" fill-rule="nonzero"/><path fill="#1a1a1e" d="M 0.886719 0 L 959.113281 0 L 959.113281 539 L 0.886719 539 Z M 0.886719 0 " fill-opacity="1" fill-rule="nonzero"/></g><g fill="#ffffff" fill-opacity="1"><g transform="translate(160.926807, 303.63779)"><g><path d="M 30.671875 0 L 18.609375 0 L 18.609375 -47.53125 L 1.171875 -47.53125 L 1.171875 -57.734375 L 48.15625 -57.734375 L 48.15625 -47.53125 L 30.671875 -47.53125 Z M 30.671875 0 "/></g></g></g><g fill="#ffffff" fill-opacity="1"><g transform="translate(210.252514, 303.63779)"><g><path d="M 31.859375 -32.328125 C 35.023438 -32.328125 37.375 -32.925781 38.90625 -34.125 C 40.4375 -35.332031 41.203125 -37.363281 41.203125 -40.21875 C 41.203125 -42.570312 40.488281 -44.421875 39.0625 -45.765625 C 37.632812 -47.117188 35.53125 -47.796875 32.75 -47.796875 L 17.71875 -47.796875 L 17.71875 -32.328125 Z M 5.890625 -57.734375 L 35.078125 -57.734375 C 41.015625 -57.734375 45.53125 -56.140625 48.625 -52.953125 C 51.71875 -49.773438 53.265625 -45.9375 53.265625 -41.4375 C 53.265625 -34.726562 50.289062 -30.144531 44.34375 -27.6875 C 47.09375 -26.644531 48.992188 -25.132812 50.046875 -23.15625 C 51.109375 -21.175781 51.640625 -17.609375 51.640625 -12.453125 C 51.640625 -7.316406 51.828125 -4.296875 52.203125 -3.390625 C 52.585938 -2.492188 53.253906 -1.875 54.203125 -1.53125 L 54.203125 0 L 40.890625 0 C 40.023438 -2.59375 39.59375 -6.335938 39.59375 -11.234375 C 39.59375 -15.347656 39.316406 -18 38.765625 -19.1875 C 38.210938 -20.375 37.300781 -21.234375 36.03125 -21.765625 C 34.757812 -22.304688 32.804688 -22.578125 30.171875 -22.578125 L 17.71875 -22.578125 L 17.71875 0 L 5.890625 0 Z M 5.890625 -57.734375 "/></g></g></g><g fill="#ffffff" fill-opacity="1"><g transform="translate(267.393361, 303.63779)"><g><path d="M 20.9375 -21.875 L 35.65625 -21.875 L 28.46875 -44.734375 L 28.3125 -44.734375 Z M 13.703125 0 L 0.984375 0 L 21.5625 -57.734375 L 35.5 -57.734375 L 55.84375 0 L 42.734375 0 L 39.046875 -11.90625 L 17.71875 -11.90625 Z M 13.703125 0 "/></g></g></g><g fill="#ffffff" fill-opacity="1"><g transform="translate(324.220032, 303.63779)"><g><path d="M 17.71875 -9.96875 L 29.453125 -9.96875 C 33.585938 -9.96875 36.804688 -11.695312 39.109375 -15.15625 C 41.421875 -18.613281 42.578125 -23.351562 42.578125 -29.375 C 42.578125 -35.582031 41.515625 -40.203125 39.390625 -43.234375 C 37.273438 -46.273438 34.039062 -47.796875 29.6875 -47.796875 L 17.71875 -47.796875 Z M 5.890625 -57.734375 L 31.375 -57.734375 C 39.175781 -57.734375 45.039062 -55.195312 48.96875 -50.125 C 52.90625 -45.0625 54.875 -38.4375 54.875 -30.25 C 54.875 -21.1875 52.785156 -13.878906 48.609375 -8.328125 C 44.429688 -2.773438 38.53125 0 30.90625 0 L 5.890625 0 Z M 5.890625 -57.734375 "/></g></g></g><g fill="#ffffff" fill-opacity="1"><g transform="translate(382.617585, 303.63779)"><g><path d="M 17.953125 0 L 5.890625 0 L 5.890625 -57.734375 L 17.953125 -57.734375 Z M 17.953125 0 "/></g></g></g><g fill="#ffffff" fill-opacity="1"><g transform="translate(406.455726, 303.63779)"><g><path d="M 41.71875 -57.734375 L 52.9375 -57.734375 L 52.9375 0 L 40.890625 0 L 17.328125 -41.203125 L 17.15625 -41.203125 L 17.15625 0 L 5.890625 0 L 5.890625 -57.734375 L 18.609375 -57.734375 L 41.546875 -17.515625 L 41.71875 -17.515625 Z M 41.71875 -57.734375 "/></g></g></g><g fill="#ffffff" fill-opacity="1"><g transform="translate(465.285272, 303.63779)"><g><path d="M 33.234375 -31.140625 L 57.34375 -31.140625 L 57.34375 0 L 49.296875 0 L 48.109375 -7.234375 C 43.660156 -1.390625 37.570312 1.53125 29.84375 1.53125 C 22.125 1.53125 15.804688 -1.222656 10.890625 -6.734375 C 5.984375 -12.242188 3.53125 -19.566406 3.53125 -28.703125 C 3.53125 -37.847656 6.054688 -45.226562 11.109375 -50.84375 C 16.171875 -56.457031 23.0625 -59.265625 31.78125 -59.265625 C 39.238281 -59.265625 45.191406 -57.382812 49.640625 -53.625 C 54.097656 -49.875 56.585938 -45.273438 57.109375 -39.828125 L 45.09375 -39.828125 C 44.351562 -42.703125 42.820312 -45 40.5 -46.71875 C 38.1875 -48.4375 35.488281 -49.296875 32.40625 -49.296875 C 27.25 -49.296875 23.195312 -47.445312 20.25 -43.75 C 17.300781 -40.0625 15.828125 -35.007812 15.828125 -28.59375 C 15.828125 -22.207031 17.242188 -17.289062 20.078125 -13.84375 C 22.921875 -10.40625 27.109375 -8.6875 32.640625 -8.6875 C 35.753906 -8.6875 38.609375 -9.691406 41.203125 -11.703125 C 43.796875 -13.722656 45.613281 -16.957031 46.65625 -21.40625 L 33.234375 -21.40625 Z M 33.234375 -31.140625 "/></g></g></g><g fill="#ffffff" fill-opacity="1"><g transform="translate(528.120568, 303.63779)"><g/></g></g><g fill="#0043cc" fill-opacity="1"><g transform="translate(549.726324, 303.63779)"><g><path d="M 48.34375 -47.53125 L 17.71875 -47.53125 L 17.71875 -35.390625 L 45.875 -35.390625 L 45.875 -25.171875 L 17.71875 -25.171875 L 17.71875 -10.21875 L 49.71875 -10.21875 L 49.71875 0 L 5.890625 0 L 5.890625 -57.734375 L 48.34375 -57.734375 Z M 48.34375 -47.53125 "/></g></g></g><g fill="#0043cc" fill-opacity="1"><g transform="translate(602.979237, 303.63779)"><g><path d="M 17.71875 -9.96875 L 29.453125 -9.96875 C 33.585938 -9.96875 36.804688 -11.695312 39.109375 -15.15625 C 41.421875 -18.613281 42.578125 -23.351562 42.578125 -29.375 C 42.578125 -35.582031 41.515625 -40.203125 39.390625 -43.234375 C 37.273438 -46.273438 34.039062 -47.796875 29.6875 -47.796875 L 17.71875 -47.796875 Z M 5.890625 -57.734375 L 31.375 -57.734375 C 39.175781 -57.734375 45.039062 -55.195312 48.96875 -50.125 C 52.90625 -45.0625 54.875 -38.4375 54.875 -30.25 C 54.875 -21.1875 52.785156 -13.878906 48.609375 -8.328125 C 44.429688 -2.773438 38.53125 0 30.90625 0 L 5.890625 0 Z M 5.890625 -57.734375 "/></g></g></g><g fill="#0043cc" fill-opacity="1"><g transform="translate(661.37679, 303.63779)"><g><path d="M 33.234375 -31.140625 L 57.34375 -31.140625 L 57.34375 0 L 49.296875 0 L 48.109375 -7.234375 C 43.660156 -1.390625 37.570312 1.53125 29.84375 1.53125 C 22.125 1.53125 15.804688 -1.222656 10.890625 -6.734375 C 5.984375 -12.242188 3.53125 -19.566406 3.53125 -28.703125 C 3.53125 -37.847656 6.054688 -45.226562 11.109375 -50.84375 C 16.171875 -56.457031 23.0625 -59.265625 31.78125 -59.265625 C 39.238281 -59.265625 45.191406 -57.382812 49.640625 -53.625 C 54.097656 -49.875 56.585938 -45.273438 57.109375 -39.828125 L 45.09375 -39.828125 C 44.351562 -42.703125 42.820312 -45 40.5 -46.71875 C 38.1875 -48.4375 35.488281 -49.296875 32.40625 -49.296875 C 27.25 -49.296875 23.195312 -47.445312 20.25 -43.75 C 17.300781 -40.0625 15.828125 -35.007812 15.828125 -28.59375 C 15.828125 -22.207031 17.242188 -17.289062 20.078125 -13.84375 C 22.921875 -10.40625 27.109375 -8.6875 32.640625 -8.6875 C 35.753906 -8.6875 38.609375 -9.691406 41.203125 -11.703125 C 43.796875 -13.722656 45.613281 -16.957031 46.65625 -21.40625 L 33.234375 -21.40625 Z M 33.234375 -31.140625 "/></g></g></g><g fill="#0043cc" fill-opacity="1"><g transform="translate(724.212086, 303.63779)"><g><path d="M 48.34375 -47.53125 L 17.71875 -47.53125 L 17.71875 -35.390625 L 45.875 -35.390625 L 45.875 -25.171875 L 17.71875 -25.171875 L 17.71875 -10.21875 L 49.71875 -10.21875 L 49.71875 0 L 5.890625 0 L 5.890625 -57.734375 L 48.34375 -57.734375 Z M 48.34375 -47.53125 "/></g></g></g><g fill="#0043cc" fill-opacity="1"><g transform="translate(777.468632, 303.63779)"><g/></g></g></svg>